<svg width="25" height="20" viewBox="0 0 25 20" fill="none" xmlns="http://www.w3.org/2000/svg">
<path d="M12.4998 15.6249C9.53693 15.6249 7.13852 13.3316 6.91781 10.4254L2.8202 7.25862C2.28153 7.9344 1.78583 8.64884 1.38584 9.43008C1.29648 9.60684 1.24992 9.80213 1.24992 10.0002C1.24992 10.1983 1.29648 10.3935 1.38584 10.5703C3.50418 14.7035 7.69788 17.4999 12.4998 17.4999C13.551 17.4999 14.565 17.3437 15.5423 17.0913L13.5154 15.523C13.1807 15.5877 12.8407 15.6218 12.4998 15.6249ZM24.7583 17.8945L20.4399 14.557C21.7517 13.4515 22.8306 12.0962 23.6137 10.5699C23.7031 10.3932 23.7497 10.1979 23.7497 9.9998C23.7497 9.80174 23.7031 9.60645 23.6137 9.42969C21.4954 5.29653 17.3017 2.50008 12.4998 2.50008C10.4887 2.50251 8.51023 3.00881 6.74516 3.97272L1.77568 0.131742C1.71088 0.0813156 1.63677 0.044153 1.5576 0.0223777C1.47843 0.000602448 1.39574 -0.00535875 1.31427 0.00483481C1.23279 0.0150284 1.15412 0.0411769 1.08276 0.081786C1.01139 0.122395 0.948726 0.176669 0.898344 0.241506L0.131555 1.22861C0.0298365 1.35946 -0.0157428 1.52535 0.0048414 1.68981C0.0254256 1.85426 0.110488 2.00381 0.241319 2.10555L23.2239 19.8683C23.2887 19.9187 23.3628 19.9558 23.442 19.9776C23.5212 19.9994 23.6038 20.0054 23.6853 19.9952C23.7668 19.985 23.8455 19.9588 23.9168 19.9182C23.9882 19.8776 24.0509 19.8233 24.1012 19.7585L24.8684 18.7714C24.9701 18.6405 25.0156 18.4746 24.9949 18.3101C24.9743 18.1457 24.8892 17.9961 24.7583 17.8945ZM17.5818 12.3476L16.0466 11.1609C16.1759 10.7873 16.2445 10.3953 16.2498 10C16.2574 9.4212 16.1291 8.84868 15.8754 8.32843C15.6216 7.80818 15.2493 7.3547 14.7885 7.00441C14.3277 6.65413 13.7911 6.4168 13.2219 6.3115C12.6527 6.2062 12.0668 6.23585 11.5111 6.39808C11.7467 6.71726 11.8741 7.10334 11.8748 7.50003C11.869 7.63203 11.8488 7.76301 11.8146 7.89065L8.93928 5.6684C9.93809 4.83373 11.1981 4.37602 12.4998 4.37506C13.2386 4.37465 13.9702 4.51986 14.6528 4.80239C15.3355 5.08493 15.9557 5.49924 16.4781 6.02165C17.0005 6.54406 17.4149 7.16431 17.6974 7.84694C17.9799 8.52958 18.1251 9.26121 18.1247 10C18.1247 10.8449 17.9181 11.6324 17.5818 12.348V12.3476Z" fill="#28262D"/>
</svg>
