<svg width="30" height="30" viewBox="0 0 30 30" fill="none" xmlns="http://www.w3.org/2000/svg">
<path fill-rule="evenodd" clip-rule="evenodd" d="M8.81583 0.09C10.4158 0.0166636 10.9258 0 15 0C19.075 0 19.5841 0.0174954 21.1833 0.09C22.7808 0.162505 23.8717 0.416673 24.8258 0.7875C25.8266 1.16429 26.7331 1.75465 27.4825 2.5175C28.2454 3.26673 28.8359 4.17335 29.2125 5.17417C29.5833 6.12833 29.8366 7.21917 29.91 8.81583C29.9834 10.4158 30 10.9258 30 15C30 19.0741 29.9825 19.5841 29.91 21.1842C29.8375 22.7808 29.5833 23.8717 29.2125 24.8258C28.8292 25.8117 28.3158 26.6491 27.4825 27.4825C26.7333 28.2454 25.8266 28.8359 24.8258 29.2125C23.8717 29.5833 22.7808 29.8366 21.1842 29.91C19.5841 29.9834 19.0741 30 15 30C10.9258 30 10.4158 29.9825 8.81583 29.91C7.21917 29.8375 6.12833 29.5833 5.17417 29.2125C4.18833 28.8292 3.35084 28.3158 2.5175 27.4825C1.75451 26.7333 1.16411 25.8266 0.7875 24.8258C0.416673 23.8717 0.163336 22.7808 0.09 21.1842C0.0166636 19.5841 0 19.075 0 15C0 10.925 0.0174954 10.4158 0.09 8.81667C0.162505 7.21917 0.416673 6.12833 0.7875 5.17417C1.16429 4.17342 1.75465 3.26684 2.5175 2.5175C3.26671 1.75451 4.17334 1.16411 5.17417 0.7875C6.12833 0.416673 7.21917 0.163336 8.81583 0.09ZM21.0616 2.79C19.48 2.71833 19.005 2.7025 15 2.7025C10.995 2.7025 10.52 2.71833 8.93834 2.79C7.47584 2.85667 6.68167 3.10083 6.15333 3.30667C5.45333 3.57833 4.95333 3.90333 4.42833 4.42833C3.90417 4.95333 3.57833 5.45333 3.30667 6.15333C3.10083 6.68167 2.85667 7.47584 2.79 8.93834C2.71833 10.52 2.7025 10.995 2.7025 15C2.7025 19.005 2.71833 19.48 2.79 21.0616C2.85667 22.5241 3.10083 23.3183 3.30667 23.8467C3.54697 24.4983 3.93026 25.0876 4.42833 25.5717C4.91228 26.0697 5.50174 26.453 6.15333 26.6933C6.68167 26.8992 7.47584 27.1433 8.93834 27.21C10.52 27.2817 10.9942 27.2975 15 27.2975C19.0058 27.2975 19.48 27.2817 21.0616 27.21C22.5241 27.1433 23.3183 26.8992 23.8467 26.6933C24.5467 26.4217 25.0467 26.0967 25.5717 25.5717C26.0697 25.0878 26.453 24.4983 26.6933 23.8467C26.8992 23.3183 27.1433 22.5241 27.21 21.0616C27.2817 19.48 27.2975 19.005 27.2975 15C27.2975 10.995 27.2817 10.52 27.21 8.93834C27.1433 7.47584 26.8992 6.68167 26.6933 6.15333C26.4217 5.45333 26.0967 4.95333 25.5717 4.42833C25.0467 3.90417 24.5467 3.57833 23.8467 3.30667C23.3183 3.10083 22.5241 2.85667 21.0616 2.79ZM13.0848 19.624C13.692 19.8755 14.3427 20.005 15 20.005C16.3275 20.005 17.6005 19.4776 18.539 18.539C19.4778 17.6005 20.0051 16.3274 20.0051 15C20.0051 13.6726 19.4778 12.3995 18.539 11.4609C17.6005 10.5223 16.3275 9.99499 15 9.99499C14.3427 9.99499 13.692 10.1245 13.0848 10.376C12.4774 10.6275 11.9257 10.9962 11.461 11.4609C10.9962 11.9257 10.6275 12.4774 10.376 13.0846C10.1245 13.6919 9.99505 14.3427 9.99505 15C9.99505 15.6573 10.1245 16.3081 10.376 16.9154C10.6275 17.5226 10.9962 18.0743 11.461 18.539C11.9257 19.0038 12.4774 19.3725 13.0848 19.624ZM9.54825 9.5482C10.9942 8.10229 12.9552 7.28999 15 7.28999C17.0449 7.28999 19.006 8.10229 20.4518 9.5482C21.8977 10.9941 22.71 12.9552 22.71 15C22.71 17.0448 21.8977 19.0058 20.4518 20.4518C19.006 21.8977 17.0449 22.71 15 22.71C12.9552 22.71 10.9942 21.8977 9.54825 20.4518C8.10235 19.0058 7.29004 17.0448 7.29004 15C7.29004 12.9552 8.10235 10.9941 9.54825 9.5482ZM24.4196 8.4387C24.7613 8.0969 24.9533 7.63335 24.9533 7.15C24.9533 6.66663 24.7613 6.20307 24.4196 5.86129C24.0777 5.51951 23.6142 5.3275 23.1308 5.3275C22.6475 5.3275 22.1839 5.51951 21.8422 5.86129C21.5003 6.20307 21.3083 6.66663 21.3083 7.15C21.3083 7.63335 21.5003 8.0969 21.8422 8.4387C22.1839 8.78048 22.6475 8.9725 23.1308 8.9725C23.6142 8.9725 24.0777 8.78048 24.4196 8.4387Z" fill="#0D0C0F"/>
</svg>
