<svg width="20" height="21" viewBox="0 0 20 21" fill="none" xmlns="http://www.w3.org/2000/svg">
<path d="M1.53483 17.3306H11.7706C11.6994 18.7028 10.8151 19.577 9.59537 19.577C8.36543 19.577 7.49128 18.7028 7.40997 17.3306H5.82431C5.90563 19.2822 7.44046 21 9.59537 21C11.7401 21 13.2749 19.2822 13.3562 17.3306H17.6457C18.6112 17.3306 19.1806 16.8326 19.1806 16.1007C19.1806 15.0842 18.1539 14.1694 17.2696 13.2648C16.5988 12.5634 16.4158 11.12 16.3447 9.95112C16.2633 5.94627 15.2367 3.35428 12.5228 2.37848C12.1873 1.05712 11.0896 0 9.59537 0C8.09099 0 7.00338 1.05712 6.65778 2.37848C3.95403 3.35428 2.91721 5.94627 2.84608 9.95112C2.76477 11.12 2.59194 12.5634 1.91092 13.2648C1.03678 14.1694 0 15.0842 0 16.1007C0 16.8326 0.579365 17.3306 1.53483 17.3306ZM1.98209 15.7957V15.6738C2.16506 15.3689 2.76477 14.7793 3.3035 14.1796C4.02515 13.3664 4.37076 12.0654 4.46223 10.0731C4.54354 5.64134 5.86495 4.21828 7.61324 3.75072C7.86738 3.68974 7.99952 3.55759 8.00967 3.30345C8.05035 2.23619 8.65006 1.49419 9.59537 1.49419C10.5305 1.49419 11.1404 2.23619 11.1709 3.30345C11.181 3.55759 11.3233 3.68974 11.5775 3.75072C13.3156 4.21828 14.637 5.64134 14.7285 10.0731C14.8098 12.0654 15.1554 13.3664 15.8872 14.1796C16.4158 14.7793 17.0257 15.3689 17.2086 15.6738V15.7957H1.98209Z" fill="white"/>
</svg>
