<svg width="166" height="31" viewBox="0 0 166 31" fill="none" xmlns="http://www.w3.org/2000/svg">
<path d="M17.48 6.12C17.3333 6.36 17.18 6.54 17.02 6.66C16.86 6.76667 16.66 6.82 16.42 6.82C16.1667 6.82 15.88 6.71333 15.56 6.5C15.2533 6.28666 14.8667 6.05333 14.4 5.8C13.9467 5.53333 13.4067 5.29333 12.78 5.08C12.1533 4.85333 11.4067 4.74 10.54 4.74C9.74 4.74 9.03333 4.84 8.42 5.04C7.82 5.24 7.31333 5.52 6.9 5.88C6.48667 6.24 6.17333 6.66667 5.96 7.16C5.76 7.64 5.66 8.16667 5.66 8.74C5.66 9.47333 5.85333 10.0867 6.24 10.58C6.62667 11.06 7.13333 11.4733 7.76 11.82C8.4 12.1667 9.12667 12.4733 9.94 12.74C10.7533 12.9933 11.58 13.2667 12.42 13.56C13.2733 13.8533 14.1067 14.1867 14.92 14.56C15.7333 14.9333 16.4533 15.4067 17.08 15.98C17.72 16.5533 18.2333 17.2533 18.62 18.08C19.0067 18.9067 19.2 19.9133 19.2 21.1C19.2 22.38 18.98 23.58 18.54 24.7C18.1 25.82 17.46 26.8 16.62 27.64C15.7933 28.4667 14.7667 29.12 13.54 29.6C12.3267 30.08 10.94 30.32 9.38 30.32C8.46 30.32 7.56 30.2267 6.68 30.04C5.81333 29.8667 4.98 29.62 4.18 29.3C3.39333 28.9667 2.65333 28.5667 1.96 28.1C1.26667 27.6333 0.646667 27.1133 0.1 26.54L1.46 24.3C1.58 24.1133 1.73333 23.9667 1.92 23.86C2.10667 23.7533 2.31333 23.7 2.54 23.7C2.84667 23.7 3.18667 23.8467 3.56 24.14C3.93333 24.42 4.38 24.7333 4.9 25.08C5.43333 25.4133 6.07333 25.7267 6.82 26.02C7.56667 26.3 8.46 26.44 9.5 26.44C11.1933 26.44 12.5 26.0267 13.42 25.2C14.3533 24.3733 14.82 23.2333 14.82 21.78C14.82 20.9667 14.6267 20.3067 14.24 19.8C13.8533 19.28 13.34 18.8467 12.7 18.5C12.0733 18.1533 11.3533 17.86 10.54 17.62C9.72667 17.38 8.9 17.1267 8.06 16.86C7.22 16.58 6.39333 16.26 5.58 15.9C4.76667 15.5267 4.04 15.0467 3.4 14.46C2.77333 13.86 2.26667 13.1267 1.88 12.26C1.49333 11.38 1.3 10.2867 1.3 8.98C1.3 7.94 1.5 6.93333 1.9 5.96C2.31333 4.98667 2.90667 4.12666 3.68 3.38C4.46667 2.62 5.43333 2.01333 6.58 1.56C7.72667 1.10667 9.03333 0.879998 10.5 0.879998C12.1533 0.879998 13.6667 1.14 15.04 1.66C16.4267 2.18 17.62 2.92 18.62 3.88L17.48 6.12ZM29.0975 30.32C27.4042 30.32 26.0975 29.8467 25.1775 28.9C24.2708 27.94 23.8175 26.5933 23.8175 24.86V12.98H21.5775C21.3375 12.98 21.1308 12.9067 20.9575 12.76C20.7842 12.6 20.6975 12.3667 20.6975 12.06V10.32L23.9975 9.84L24.9375 3.94C25.0042 3.71333 25.1175 3.53333 25.2775 3.4C25.4375 3.25333 25.6508 3.18 25.9175 3.18H28.1175V9.88H33.7775V12.98H28.1175V24.56C28.1175 25.2933 28.2975 25.8533 28.6575 26.24C29.0175 26.6267 29.4975 26.82 30.0975 26.82C30.4308 26.82 30.7175 26.78 30.9575 26.7C31.1975 26.6067 31.4042 26.5133 31.5775 26.42C31.7508 26.3133 31.8975 26.22 32.0175 26.14C32.1508 26.0467 32.2775 26 32.3975 26C32.6375 26 32.8308 26.1333 32.9775 26.4L34.2575 28.5C33.5908 29.0867 32.8042 29.54 31.8975 29.86C30.9908 30.1667 30.0575 30.32 29.0975 30.32ZM41.2269 13.38C41.8669 12.0867 42.6402 11.0733 43.5469 10.34C44.4535 9.59333 45.5402 9.22 46.8069 9.22C47.2469 9.22 47.6602 9.27333 48.0469 9.38C48.4335 9.47333 48.7802 9.62 49.0869 9.82L48.7869 13.06C48.7335 13.2867 48.6469 13.4467 48.5269 13.54C48.4202 13.62 48.2735 13.66 48.0869 13.66C47.8869 13.66 47.6002 13.6267 47.2269 13.56C46.8535 13.48 46.4602 13.44 46.0469 13.44C45.4469 13.44 44.9135 13.5267 44.4469 13.7C43.9935 13.8733 43.5802 14.1267 43.2069 14.46C42.8469 14.7933 42.5269 15.2 42.2469 15.68C41.9669 16.16 41.7069 16.7067 41.4669 17.32V30H37.1669V9.6H39.6669C40.1202 9.6 40.4335 9.68666 40.6069 9.86C40.7802 10.02 40.9002 10.3067 40.9669 10.72L41.2269 13.38ZM64.6094 17.5C64.6094 16.78 64.5027 16.1133 64.2894 15.5C64.0894 14.8733 63.7894 14.3333 63.3894 13.88C62.9894 13.4133 62.4894 13.0533 61.8894 12.8C61.3027 12.5333 60.6227 12.4 59.8494 12.4C58.2894 12.4 57.0627 12.8467 56.1694 13.74C55.276 14.6333 54.7094 15.8867 54.4694 17.5H64.6094ZM54.3494 20.14C54.4027 21.3 54.5827 22.3067 54.8894 23.16C55.196 24 55.6027 24.7 56.1094 25.26C56.6294 25.82 57.2427 26.24 57.9494 26.52C58.6694 26.7867 59.4694 26.92 60.3494 26.92C61.1894 26.92 61.916 26.8267 62.5294 26.64C63.1427 26.44 63.676 26.2267 64.1294 26C64.5827 25.76 64.9694 25.5467 65.2894 25.36C65.6094 25.16 65.9027 25.06 66.1694 25.06C66.516 25.06 66.7827 25.1933 66.9694 25.46L68.1894 27.04C67.6827 27.64 67.1094 28.1467 66.4694 28.56C65.8294 28.9733 65.1494 29.3133 64.4294 29.58C63.7094 29.8333 62.9694 30.0133 62.2094 30.12C61.4494 30.24 60.7094 30.3 59.9894 30.3C58.576 30.3 57.2627 30.0667 56.0494 29.6C54.8494 29.12 53.8027 28.42 52.9094 27.5C52.0294 26.58 51.336 25.44 50.8294 24.08C50.336 22.72 50.0894 21.1533 50.0894 19.38C50.0894 17.9667 50.3094 16.6467 50.7494 15.42C51.2027 14.1933 51.8427 13.1267 52.6694 12.22C53.5094 11.3133 54.5227 10.6 55.7094 10.08C56.9094 9.54667 58.2627 9.28 59.7694 9.28C61.0227 9.28 62.1827 9.48667 63.2494 9.9C64.316 10.3 65.236 10.8933 66.0094 11.68C66.7827 12.4667 67.3827 13.4333 67.8094 14.58C68.2494 15.7133 68.4694 17.0067 68.4694 18.46C68.4694 19.1267 68.396 19.5733 68.2494 19.8C68.1027 20.0267 67.836 20.14 67.4494 20.14H54.3494ZM83.3794 21.08C81.846 21.1333 80.5527 21.26 79.4994 21.46C78.446 21.6467 77.5927 21.8933 76.9394 22.2C76.286 22.4933 75.8127 22.8467 75.5194 23.26C75.2394 23.6733 75.0994 24.1267 75.0994 24.62C75.0994 25.1 75.1727 25.5133 75.3194 25.86C75.4794 26.1933 75.6927 26.4733 75.9594 26.7C76.2394 26.9133 76.5594 27.0733 76.9194 27.18C77.2927 27.2733 77.6994 27.32 78.1394 27.32C79.2594 27.32 80.2194 27.1133 81.0194 26.7C81.8327 26.2733 82.6194 25.66 83.3794 24.86V21.08ZM71.9794 12.44C74.286 10.2933 77.0327 9.22 80.2194 9.22C81.3927 9.22 82.4327 9.41333 83.3394 9.8C84.2594 10.1733 85.026 10.7067 85.6394 11.4C86.266 12.0933 86.7394 12.92 87.0594 13.88C87.3927 14.8267 87.5594 15.88 87.5594 17.04V30H85.6394C85.226 30 84.9127 29.94 84.6994 29.82C84.486 29.6867 84.306 29.4267 84.1594 29.04L83.7394 27.38C83.2194 27.8467 82.706 28.2667 82.1994 28.64C81.6927 29 81.166 29.3067 80.6194 29.56C80.086 29.8133 79.506 30 78.8794 30.12C78.266 30.2533 77.586 30.32 76.8394 30.32C76.0127 30.32 75.2394 30.2067 74.5194 29.98C73.8127 29.7533 73.1994 29.4133 72.6794 28.96C72.1594 28.4933 71.746 27.92 71.4394 27.24C71.146 26.56 70.9994 25.76 70.9994 24.84C70.9994 24.0533 71.206 23.2867 71.6194 22.54C72.046 21.7933 72.7394 21.1267 73.6994 20.54C74.6727 19.94 75.946 19.4467 77.5194 19.06C79.106 18.6733 81.0594 18.4533 83.3794 18.4V17.04C83.3794 15.5733 83.066 14.48 82.4394 13.76C81.8127 13.04 80.8927 12.68 79.6794 12.68C78.8527 12.68 78.1594 12.7867 77.5994 13C77.0394 13.2 76.5527 13.42 76.1394 13.66C75.726 13.9 75.3594 14.1267 75.0394 14.34C74.7194 14.54 74.3794 14.64 74.0194 14.64C73.726 14.64 73.4727 14.5667 73.2594 14.42C73.0594 14.26 72.8927 14.0667 72.7594 13.84L71.9794 12.44ZM92.5966 30V9.6H95.1966C95.7832 9.6 96.1566 9.87333 96.3166 10.42L96.5966 12.2C96.9699 11.7733 97.3566 11.3867 97.7566 11.04C98.1566 10.68 98.5832 10.3733 99.0366 10.12C99.5032 9.85333 99.9966 9.64667 100.517 9.5C101.05 9.35333 101.623 9.28 102.237 9.28C102.89 9.28 103.49 9.37333 104.037 9.56C104.583 9.74667 105.063 10.0133 105.477 10.36C105.903 10.7067 106.27 11.1267 106.577 11.62C106.883 12.1133 107.137 12.6667 107.337 13.28C107.643 12.5733 108.03 11.9667 108.497 11.46C108.963 10.9533 109.483 10.54 110.057 10.22C110.63 9.9 111.237 9.66667 111.877 9.52C112.53 9.36 113.19 9.28 113.857 9.28C114.95 9.28 115.923 9.45333 116.777 9.8C117.643 10.1467 118.37 10.6533 118.957 11.32C119.557 11.9733 120.01 12.78 120.317 13.74C120.623 14.7 120.777 15.7933 120.777 17.02V30H116.477V17.02C116.477 15.58 116.163 14.5 115.537 13.78C114.923 13.0467 114.01 12.68 112.797 12.68C112.25 12.68 111.737 12.7733 111.257 12.96C110.777 13.1467 110.357 13.42 109.997 13.78C109.637 14.14 109.35 14.5933 109.137 15.14C108.937 15.6733 108.837 16.3 108.837 17.02V30H104.537V17.02C104.537 15.5267 104.237 14.4333 103.637 13.74C103.037 13.0333 102.157 12.68 100.997 12.68C100.197 12.68 99.4566 12.8867 98.7766 13.3C98.0966 13.7 97.4699 14.2533 96.8966 14.96V30H92.5966ZM128.56 0.899999V30H126.64V0.899999H128.56ZM149.248 18.04C149.248 16.9733 149.094 16.02 148.788 15.18C148.494 14.3267 148.074 13.6067 147.528 13.02C146.981 12.4333 146.328 11.9867 145.568 11.68C144.821 11.36 143.994 11.2 143.088 11.2C142.061 11.2 141.141 11.36 140.328 11.68C139.514 12 138.808 12.46 138.208 13.06C137.621 13.66 137.148 14.38 136.788 15.22C136.428 16.06 136.188 17 136.068 18.04H149.248ZM135.968 19.26V19.64C135.968 21.1333 136.141 22.4467 136.488 23.58C136.834 24.7133 137.328 25.6667 137.968 26.44C138.608 27.2 139.381 27.7733 140.288 28.16C141.194 28.5467 142.208 28.74 143.328 28.74C144.328 28.74 145.194 28.6333 145.928 28.42C146.661 28.1933 147.274 27.9467 147.768 27.68C148.274 27.4 148.674 27.1533 148.968 26.94C149.261 26.7133 149.474 26.6 149.608 26.6C149.781 26.6 149.914 26.6667 150.008 26.8L150.528 27.44C150.208 27.84 149.781 28.2133 149.248 28.56C148.728 28.9067 148.141 29.2067 147.488 29.46C146.848 29.7 146.154 29.8933 145.408 30.04C144.674 30.1867 143.934 30.26 143.188 30.26C141.828 30.26 140.588 30.0267 139.468 29.56C138.348 29.08 137.388 28.3867 136.588 27.48C135.788 26.5733 135.168 25.4667 134.728 24.16C134.301 22.84 134.088 21.3333 134.088 19.64C134.088 18.2133 134.288 16.9 134.688 15.7C135.101 14.4867 135.688 13.4467 136.448 12.58C137.221 11.7 138.161 11.0133 139.268 10.52C140.388 10.0267 141.654 9.78 143.068 9.78C144.188 9.78 145.228 9.97333 146.188 10.36C147.148 10.7467 147.981 11.3133 148.688 12.06C149.394 12.7933 149.948 13.7 150.348 14.78C150.761 15.86 150.968 17.1 150.968 18.5C150.968 18.7933 150.928 18.9933 150.848 19.1C150.768 19.2067 150.634 19.26 150.448 19.26H135.968ZM161.509 30.32C160.162 30.32 159.109 29.9467 158.349 29.2C157.602 28.4533 157.229 27.3 157.229 25.74V12.14H154.369C154.222 12.14 154.102 12.1 154.009 12.02C153.916 11.94 153.869 11.8267 153.869 11.68V10.94L157.269 10.7L157.749 3.58C157.776 3.46 157.829 3.35333 157.909 3.26C157.989 3.16667 158.102 3.12 158.249 3.12H159.149V10.72H165.429V12.14H159.149V25.64C159.149 26.1867 159.216 26.66 159.349 27.06C159.496 27.4467 159.689 27.7667 159.929 28.02C160.182 28.2733 160.476 28.46 160.809 28.58C161.142 28.7 161.502 28.76 161.889 28.76C162.369 28.76 162.782 28.6933 163.129 28.56C163.476 28.4133 163.776 28.26 164.029 28.1C164.282 27.9267 164.489 27.7733 164.649 27.64C164.809 27.4933 164.936 27.42 165.029 27.42C165.136 27.42 165.242 27.4867 165.349 27.62L165.869 28.46C165.362 29.02 164.716 29.4733 163.929 29.82C163.156 30.1533 162.349 30.32 161.509 30.32Z" fill="#00925D"/>
</svg>
