<svg width="134" height="25" viewBox="0 0 134 25" fill="none" xmlns="http://www.w3.org/2000/svg">
<path d="M14.784 4.896C14.6667 5.088 14.544 5.232 14.416 5.328C14.288 5.41333 14.128 5.456 13.936 5.456C13.7333 5.456 13.504 5.37067 13.248 5.2C13.0027 5.02933 12.6933 4.84267 12.32 4.64C11.9573 4.42667 11.5253 4.23467 11.024 4.064C10.5227 3.88267 9.92533 3.792 9.232 3.792C8.592 3.792 8.02667 3.872 7.536 4.032C7.056 4.192 6.65067 4.416 6.32 4.704C5.98933 4.992 5.73867 5.33333 5.568 5.728C5.408 6.112 5.328 6.53333 5.328 6.992C5.328 7.57867 5.48267 8.06933 5.792 8.464C6.10133 8.848 6.50667 9.17867 7.008 9.456C7.52 9.73333 8.10133 9.97867 8.752 10.192C9.40267 10.3947 10.064 10.6133 10.736 10.848C11.4187 11.0827 12.0853 11.3493 12.736 11.648C13.3867 11.9467 13.9627 12.3253 14.464 12.784C14.976 13.2427 15.3867 13.8027 15.696 14.464C16.0053 15.1253 16.16 15.9307 16.16 16.88C16.16 17.904 15.984 18.864 15.632 19.76C15.28 20.656 14.768 21.44 14.096 22.112C13.4347 22.7733 12.6133 23.296 11.632 23.68C10.6613 24.064 9.552 24.256 8.304 24.256C7.568 24.256 6.848 24.1813 6.144 24.032C5.45067 23.8933 4.784 23.696 4.144 23.44C3.51467 23.1733 2.92267 22.8533 2.368 22.48C1.81333 22.1067 1.31733 21.6907 0.88 21.232L1.968 19.44C2.064 19.2907 2.18667 19.1733 2.336 19.088C2.48533 19.0027 2.65067 18.96 2.832 18.96C3.07733 18.96 3.34933 19.0773 3.648 19.312C3.94667 19.536 4.304 19.7867 4.72 20.064C5.14667 20.3307 5.65867 20.5813 6.256 20.816C6.85333 21.04 7.568 21.152 8.4 21.152C9.75467 21.152 10.8 20.8213 11.536 20.16C12.2827 19.4987 12.656 18.5867 12.656 17.424C12.656 16.7733 12.5013 16.2453 12.192 15.84C11.8827 15.424 11.472 15.0773 10.96 14.8C10.4587 14.5227 9.88267 14.288 9.232 14.096C8.58133 13.904 7.92 13.7013 7.248 13.488C6.576 13.264 5.91467 13.008 5.264 12.72C4.61333 12.4213 4.032 12.0373 3.52 11.568C3.01867 11.088 2.61333 10.5013 2.304 9.808C1.99467 9.104 1.84 8.22933 1.84 7.184C1.84 6.352 2 5.54667 2.32 4.768C2.65067 3.98933 3.12533 3.30133 3.744 2.704C4.37333 2.096 5.14667 1.61067 6.064 1.248C6.98133 0.885332 8.02667 0.703999 9.2 0.703999C10.5227 0.703999 11.7333 0.911999 12.832 1.328C13.9413 1.744 14.896 2.336 15.696 3.104L14.784 4.896ZM24.078 24.256C22.7233 24.256 21.678 23.8773 20.942 23.12C20.2167 22.352 19.854 21.2747 19.854 19.888V10.384H18.062C17.87 10.384 17.7047 10.3253 17.566 10.208C17.4273 10.08 17.358 9.89333 17.358 9.648V8.256L19.998 7.872L20.75 3.152C20.8033 2.97067 20.894 2.82667 21.022 2.72C21.15 2.60267 21.3207 2.544 21.534 2.544H23.294V7.904H27.822V10.384H23.294V19.648C23.294 20.2347 23.438 20.6827 23.726 20.992C24.014 21.3013 24.398 21.456 24.878 21.456C25.1447 21.456 25.374 21.424 25.566 21.36C25.758 21.2853 25.9233 21.2107 26.062 21.136C26.2007 21.0507 26.318 20.976 26.414 20.912C26.5207 20.8373 26.622 20.8 26.718 20.8C26.91 20.8 27.0647 20.9067 27.182 21.12L28.206 22.8C27.6727 23.2693 27.0433 23.632 26.318 23.888C25.5927 24.1333 24.846 24.256 24.078 24.256ZM33.7815 10.704C34.2935 9.66933 34.9122 8.85867 35.6375 8.272C36.3628 7.67467 37.2322 7.376 38.2455 7.376C38.5975 7.376 38.9282 7.41867 39.2375 7.504C39.5468 7.57867 39.8242 7.696 40.0695 7.856L39.8295 10.448C39.7868 10.6293 39.7175 10.7573 39.6215 10.832C39.5362 10.896 39.4188 10.928 39.2695 10.928C39.1095 10.928 38.8802 10.9013 38.5815 10.848C38.2828 10.784 37.9682 10.752 37.6375 10.752C37.1575 10.752 36.7308 10.8213 36.3575 10.96C35.9948 11.0987 35.6642 11.3013 35.3655 11.568C35.0775 11.8347 34.8215 12.16 34.5975 12.544C34.3735 12.928 34.1655 13.3653 33.9735 13.856V24H30.5335V7.68H32.5335C32.8962 7.68 33.1468 7.74933 33.2855 7.888C33.4242 8.016 33.5202 8.24533 33.5735 8.576L33.7815 10.704ZM52.4875 14C52.4875 13.424 52.4022 12.8907 52.2315 12.4C52.0715 11.8987 51.8315 11.4667 51.5115 11.104C51.1915 10.7307 50.7915 10.4427 50.3115 10.24C49.8422 10.0267 49.2982 9.92 48.6795 9.92C47.4315 9.92 46.4502 10.2773 45.7355 10.992C45.0208 11.7067 44.5675 12.7093 44.3755 14H52.4875ZM44.2795 16.112C44.3222 17.04 44.4662 17.8453 44.7115 18.528C44.9568 19.2 45.2822 19.76 45.6875 20.208C46.1035 20.656 46.5942 20.992 47.1595 21.216C47.7355 21.4293 48.3755 21.536 49.0795 21.536C49.7515 21.536 50.3328 21.4613 50.8235 21.312C51.3142 21.152 51.7408 20.9813 52.1035 20.8C52.4662 20.608 52.7755 20.4373 53.0315 20.288C53.2875 20.128 53.5222 20.048 53.7355 20.048C54.0128 20.048 54.2262 20.1547 54.3755 20.368L55.3515 21.632C54.9462 22.112 54.4875 22.5173 53.9755 22.848C53.4635 23.1787 52.9195 23.4507 52.3435 23.664C51.7675 23.8667 51.1755 24.0107 50.5675 24.096C49.9595 24.192 49.3675 24.24 48.7915 24.24C47.6608 24.24 46.6102 24.0533 45.6395 23.68C44.6795 23.296 43.8422 22.736 43.1275 22C42.4235 21.264 41.8688 20.352 41.4635 19.264C41.0688 18.176 40.8715 16.9227 40.8715 15.504C40.8715 14.3733 41.0475 13.3173 41.3995 12.336C41.7622 11.3547 42.2742 10.5013 42.9355 9.776C43.6075 9.05067 44.4182 8.48 45.3675 8.064C46.3275 7.63733 47.4102 7.424 48.6155 7.424C49.6182 7.424 50.5462 7.58933 51.3995 7.92C52.2528 8.24 52.9888 8.71467 53.6075 9.344C54.2262 9.97333 54.7062 10.7467 55.0475 11.664C55.3995 12.5707 55.5755 13.6053 55.5755 14.768C55.5755 15.3013 55.5168 15.6587 55.3995 15.84C55.2822 16.0213 55.0688 16.112 54.7595 16.112H44.2795ZM67.5035 16.864C66.2768 16.9067 65.2422 17.008 64.3995 17.168C63.5568 17.3173 62.8742 17.5147 62.3515 17.76C61.8288 17.9947 61.4502 18.2773 61.2155 18.608C60.9915 18.9387 60.8795 19.3013 60.8795 19.696C60.8795 20.08 60.9382 20.4107 61.0555 20.688C61.1835 20.9547 61.3542 21.1787 61.5675 21.36C61.7915 21.5307 62.0475 21.6587 62.3355 21.744C62.6342 21.8187 62.9595 21.856 63.3115 21.856C64.2075 21.856 64.9755 21.6907 65.6155 21.36C66.2662 21.0187 66.8955 20.528 67.5035 19.888V16.864ZM58.3835 9.952C60.2288 8.23467 62.4262 7.376 64.9755 7.376C65.9142 7.376 66.7462 7.53067 67.4715 7.84C68.2075 8.13867 68.8208 8.56533 69.3115 9.12C69.8128 9.67467 70.1915 10.336 70.4475 11.104C70.7142 11.8613 70.8475 12.704 70.8475 13.632V24H69.3115C68.9808 24 68.7302 23.952 68.5595 23.856C68.3888 23.7493 68.2448 23.5413 68.1275 23.232L67.7915 21.904C67.3755 22.2773 66.9648 22.6133 66.5595 22.912C66.1542 23.2 65.7328 23.4453 65.2955 23.648C64.8688 23.8507 64.4048 24 63.9035 24.096C63.4128 24.2027 62.8688 24.256 62.2715 24.256C61.6102 24.256 60.9915 24.1653 60.4155 23.984C59.8502 23.8027 59.3595 23.5307 58.9435 23.168C58.5275 22.7947 58.1968 22.336 57.9515 21.792C57.7168 21.248 57.5995 20.608 57.5995 19.872C57.5995 19.2427 57.7648 18.6293 58.0955 18.032C58.4368 17.4347 58.9915 16.9013 59.7595 16.432C60.5382 15.952 61.5568 15.5573 62.8155 15.248C64.0848 14.9387 65.6475 14.7627 67.5035 14.72V13.632C67.5035 12.4587 67.2528 11.584 66.7515 11.008C66.2502 10.432 65.5142 10.144 64.5435 10.144C63.8822 10.144 63.3275 10.2293 62.8795 10.4C62.4315 10.56 62.0422 10.736 61.7115 10.928C61.3808 11.12 61.0875 11.3013 60.8315 11.472C60.5755 11.632 60.3035 11.712 60.0155 11.712C59.7808 11.712 59.5782 11.6533 59.4075 11.536C59.2475 11.408 59.1142 11.2533 59.0075 11.072L58.3835 9.952ZM74.8773 24V7.68H76.9573C77.4266 7.68 77.7253 7.89867 77.8533 8.336L78.0773 9.76C78.3759 9.41867 78.6853 9.10933 79.0053 8.832C79.3253 8.544 79.6666 8.29867 80.0293 8.096C80.4026 7.88267 80.7973 7.71733 81.2133 7.6C81.6399 7.48267 82.0986 7.424 82.5893 7.424C83.1119 7.424 83.5919 7.49867 84.0293 7.648C84.4666 7.79733 84.8506 8.01067 85.1813 8.288C85.5226 8.56533 85.8159 8.90133 86.0613 9.296C86.3066 9.69067 86.5093 10.1333 86.6693 10.624C86.9146 10.0587 87.2239 9.57333 87.5973 9.168C87.9706 8.76267 88.3866 8.432 88.8453 8.176C89.3039 7.92 89.7893 7.73333 90.3013 7.616C90.8239 7.488 91.3519 7.424 91.8853 7.424C92.7599 7.424 93.5386 7.56267 94.2213 7.84C94.9146 8.11733 95.4959 8.52267 95.9653 9.056C96.4453 9.57867 96.8079 10.224 97.0533 10.992C97.2986 11.76 97.4213 12.6347 97.4213 13.616V24H93.9813V13.616C93.9813 12.464 93.7306 11.6 93.2293 11.024C92.7386 10.4373 92.0079 10.144 91.0373 10.144C90.5999 10.144 90.1893 10.2187 89.8053 10.368C89.4213 10.5173 89.0853 10.736 88.7973 11.024C88.5093 11.312 88.2799 11.6747 88.1093 12.112C87.9493 12.5387 87.8693 13.04 87.8693 13.616V24H84.4293V13.616C84.4293 12.4213 84.1893 11.5467 83.7093 10.992C83.2293 10.4267 82.5253 10.144 81.5972 10.144C80.9573 10.144 80.3653 10.3093 79.8213 10.64C79.2773 10.96 78.7759 11.4027 78.3173 11.968V24H74.8773ZM103.648 0.719999V24H102.112V0.719999H103.648ZM120.198 14.432C120.198 13.5787 120.076 12.816 119.83 12.144C119.596 11.4613 119.26 10.8853 118.822 10.416C118.385 9.94667 117.862 9.58933 117.254 9.344C116.657 9.088 115.996 8.96 115.27 8.96C114.449 8.96 113.713 9.088 113.062 9.344C112.412 9.6 111.846 9.968 111.366 10.448C110.897 10.928 110.518 11.504 110.23 12.176C109.942 12.848 109.75 13.6 109.654 14.432H120.198ZM109.574 15.408V15.712C109.574 16.9067 109.713 17.9573 109.99 18.864C110.268 19.7707 110.662 20.5333 111.174 21.152C111.686 21.76 112.305 22.2187 113.03 22.528C113.756 22.8373 114.566 22.992 115.462 22.992C116.262 22.992 116.956 22.9067 117.542 22.736C118.129 22.5547 118.62 22.3573 119.014 22.144C119.42 21.92 119.74 21.7227 119.974 21.552C120.209 21.3707 120.38 21.28 120.486 21.28C120.625 21.28 120.732 21.3333 120.806 21.44L121.222 21.952C120.966 22.272 120.625 22.5707 120.198 22.848C119.782 23.1253 119.313 23.3653 118.79 23.568C118.278 23.76 117.724 23.9147 117.126 24.032C116.54 24.1493 115.948 24.208 115.35 24.208C114.262 24.208 113.27 24.0213 112.374 23.648C111.478 23.264 110.71 22.7093 110.07 21.984C109.43 21.2587 108.934 20.3733 108.582 19.328C108.241 18.272 108.07 17.0667 108.07 15.712C108.07 14.5707 108.23 13.52 108.55 12.56C108.881 11.5893 109.35 10.7573 109.958 10.064C110.577 9.36 111.329 8.81067 112.214 8.416C113.11 8.02133 114.124 7.824 115.254 7.824C116.15 7.824 116.982 7.97867 117.75 8.288C118.518 8.59733 119.185 9.05067 119.75 9.648C120.316 10.2347 120.758 10.96 121.078 11.824C121.409 12.688 121.574 13.68 121.574 14.8C121.574 15.0347 121.542 15.1947 121.478 15.28C121.414 15.3653 121.308 15.408 121.158 15.408H109.574ZM130.007 24.256C128.93 24.256 128.087 23.9573 127.479 23.36C126.882 22.7627 126.583 21.84 126.583 20.592V9.712H124.295C124.178 9.712 124.082 9.68 124.007 9.616C123.933 9.552 123.895 9.46133 123.895 9.344V8.752L126.615 8.56L126.999 2.864C127.021 2.768 127.063 2.68267 127.127 2.608C127.191 2.53333 127.282 2.496 127.399 2.496H128.119V8.576H133.143V9.712H128.119V20.512C128.119 20.9493 128.173 21.328 128.279 21.648C128.397 21.9573 128.551 22.2133 128.743 22.416C128.946 22.6187 129.181 22.768 129.447 22.864C129.714 22.96 130.002 23.008 130.311 23.008C130.695 23.008 131.026 22.9547 131.303 22.848C131.581 22.7307 131.821 22.608 132.023 22.48C132.226 22.3413 132.391 22.2187 132.519 22.112C132.647 21.9947 132.749 21.936 132.823 21.936C132.909 21.936 132.994 21.9893 133.079 22.096L133.495 22.768C133.09 23.216 132.573 23.5787 131.943 23.856C131.325 24.1227 130.679 24.256 130.007 24.256Z" fill="#00925D"/>
</svg>
