<svg width="135" height="19" viewBox="0 0 135 19" fill="none" xmlns="http://www.w3.org/2000/svg">
<path d="M11.172 3.804C11.076 3.972 10.972 4.096 10.86 4.176C10.756 4.248 10.624 4.284 10.464 4.284C10.296 4.284 10.112 4.224 9.912 4.104C9.72 3.976 9.488 3.836 9.216 3.684C8.944 3.532 8.624 3.396 8.256 3.276C7.896 3.148 7.468 3.084 6.972 3.084C6.524 3.084 6.132 3.14 5.796 3.252C5.46 3.356 5.176 3.504 4.944 3.696C4.72 3.888 4.552 4.12 4.44 4.392C4.328 4.656 4.272 4.948 4.272 5.268C4.272 5.676 4.384 6.016 4.608 6.288C4.84 6.56 5.144 6.792 5.52 6.984C5.896 7.176 6.324 7.348 6.804 7.5C7.284 7.652 7.776 7.816 8.28 7.992C8.784 8.16 9.276 8.36 9.756 8.592C10.236 8.816 10.664 9.104 11.04 9.456C11.416 9.8 11.716 10.224 11.94 10.728C12.172 11.232 12.288 11.844 12.288 12.564C12.288 13.348 12.152 14.084 11.88 14.772C11.616 15.452 11.224 16.048 10.704 16.56C10.192 17.064 9.564 17.464 8.82 17.76C8.076 18.048 7.224 18.192 6.264 18.192C5.712 18.192 5.168 18.136 4.632 18.024C4.096 17.92 3.58 17.768 3.084 17.568C2.596 17.368 2.136 17.128 1.704 16.848C1.272 16.568 0.888 16.256 0.552 15.912L1.5 14.364C1.58 14.252 1.684 14.16 1.812 14.088C1.94 14.008 2.076 13.968 2.22 13.968C2.42 13.968 2.636 14.052 2.868 14.22C3.1 14.38 3.376 14.56 3.696 14.76C4.016 14.96 4.388 15.144 4.812 15.312C5.244 15.472 5.76 15.552 6.36 15.552C7.28 15.552 7.992 15.336 8.496 14.904C9 14.464 9.252 13.836 9.252 13.02C9.252 12.564 9.136 12.192 8.904 11.904C8.68 11.616 8.38 11.376 8.004 11.184C7.628 10.984 7.2 10.816 6.72 10.68C6.24 10.544 5.752 10.396 5.256 10.236C4.76 10.076 4.272 9.884 3.792 9.66C3.312 9.436 2.884 9.144 2.508 8.784C2.132 8.424 1.828 7.976 1.596 7.44C1.372 6.896 1.26 6.228 1.26 5.436C1.26 4.804 1.384 4.188 1.632 3.588C1.888 2.988 2.256 2.456 2.736 1.992C3.216 1.528 3.808 1.156 4.512 0.875999C5.216 0.596 6.024 0.456 6.936 0.456C7.96 0.456 8.904 0.616 9.768 0.935999C10.632 1.256 11.368 1.704 11.976 2.28L11.172 3.804ZM27.2239 3.3H21.9919V18H18.7639V3.3H13.5319V0.647999H27.2239V3.3ZM34.7385 8.904C35.3465 8.904 35.8745 8.828 36.3225 8.676C36.7785 8.524 37.1505 8.316 37.4385 8.052C37.7345 7.78 37.9545 7.46 38.0985 7.092C38.2425 6.724 38.3145 6.32 38.3145 5.88C38.3145 5 38.0225 4.324 37.4385 3.852C36.8625 3.38 35.9785 3.144 34.7865 3.144H32.7225V8.904H34.7385ZM43.0425 18H40.1265C39.5745 18 39.1745 17.784 38.9265 17.352L35.2785 11.796C35.1425 11.588 34.9905 11.44 34.8225 11.352C34.6625 11.264 34.4225 11.22 34.1025 11.22H32.7225V18H29.4945V0.647999H34.7865C35.9625 0.647999 36.9705 0.771999 37.8105 1.02C38.6585 1.26 39.3505 1.6 39.8865 2.04C40.4305 2.48 40.8305 3.008 41.0865 3.624C41.3425 4.232 41.4705 4.904 41.4705 5.64C41.4705 6.224 41.3825 6.776 41.2065 7.296C41.0385 7.816 40.7905 8.288 40.4625 8.712C40.1425 9.136 39.7425 9.508 39.2625 9.828C38.7905 10.148 38.2505 10.4 37.6425 10.584C37.8505 10.704 38.0425 10.848 38.2185 11.016C38.3945 11.176 38.5545 11.368 38.6985 11.592L43.0425 18ZM55.7884 16.104L55.7764 18H45.1804V0.803999H55.7764V2.7H47.5084V8.412H54.2044V10.236H47.5084V16.104H55.7884ZM68.1639 11.616L65.4639 4.62C65.3839 4.412 65.2999 4.172 65.2119 3.9C65.1239 3.62 65.0399 3.324 64.9599 3.012C64.7919 3.66 64.6199 4.2 64.4439 4.632L61.7439 11.616H68.1639ZM73.0119 18H71.2119C71.0039 18 70.8359 17.948 70.7079 17.844C70.5799 17.74 70.4839 17.608 70.4199 17.448L68.8119 13.296H61.0959L59.4879 17.448C59.4399 17.592 59.3479 17.72 59.2119 17.832C59.0759 17.944 58.9079 18 58.7079 18H56.9079L63.7839 0.803999H66.1359L73.0119 18ZM93.1661 0.803999V18H91.1261V5.364C91.1261 5.196 91.1301 5.016 91.1381 4.824C91.1541 4.632 91.1701 4.436 91.1861 4.236L85.2821 14.988C85.0981 15.348 84.8181 15.528 84.4421 15.528H84.1061C83.7301 15.528 83.4501 15.348 83.2661 14.988L77.2421 4.188C77.2901 4.612 77.3141 5.004 77.3141 5.364V18H75.2741V0.803999H76.9901C77.1981 0.803999 77.3581 0.823999 77.4701 0.863999C77.5821 0.903999 77.6901 1.016 77.7941 1.2L83.7341 11.784C83.8301 11.976 83.9221 12.176 84.0101 12.384C84.1061 12.592 84.1941 12.804 84.2741 13.02C84.3541 12.804 84.4381 12.592 84.5261 12.384C84.6141 12.168 84.7101 11.964 84.8141 11.772L90.6461 1.2C90.7421 1.016 90.8461 0.903999 90.9581 0.863999C91.0781 0.823999 91.2421 0.803999 91.4501 0.803999H93.1661ZM107.151 16.956V18H97.8752V1.02H99.1112V16.956H107.151ZM120.216 16.98L120.192 18H110.016V1.02H120.192V2.04H111.252V8.904H118.692V9.9H111.252V16.98H120.216ZM134.978 2.064H129.014V18H127.778V2.064H121.778V1.02H134.978V2.064Z" fill="#00925D"/>
</svg>
