<svg width="136" height="19" viewBox="0 0 136 19" fill="none" xmlns="http://www.w3.org/2000/svg">
<path d="M11.172 3.804C11.076 3.972 10.972 4.096 10.86 4.176C10.756 4.248 10.624 4.284 10.464 4.284C10.296 4.284 10.112 4.224 9.912 4.104C9.72 3.976 9.488 3.836 9.216 3.684C8.944 3.532 8.624 3.396 8.256 3.276C7.896 3.148 7.468 3.084 6.972 3.084C6.524 3.084 6.132 3.14 5.796 3.252C5.46 3.356 5.176 3.504 4.944 3.696C4.72 3.888 4.552 4.12 4.44 4.392C4.328 4.656 4.272 4.948 4.272 5.268C4.272 5.676 4.384 6.016 4.608 6.288C4.84 6.56 5.144 6.792 5.52 6.984C5.896 7.176 6.324 7.348 6.804 7.5C7.284 7.652 7.776 7.816 8.28 7.992C8.784 8.16 9.276 8.36 9.756 8.592C10.236 8.816 10.664 9.104 11.04 9.456C11.416 9.8 11.716 10.224 11.94 10.728C12.172 11.232 12.288 11.844 12.288 12.564C12.288 13.348 12.152 14.084 11.88 14.772C11.616 15.452 11.224 16.048 10.704 16.56C10.192 17.064 9.564 17.464 8.82 17.76C8.076 18.048 7.224 18.192 6.264 18.192C5.712 18.192 5.168 18.136 4.632 18.024C4.096 17.92 3.58 17.768 3.084 17.568C2.596 17.368 2.136 17.128 1.704 16.848C1.272 16.568 0.888 16.256 0.552 15.912L1.5 14.364C1.58 14.252 1.684 14.16 1.812 14.088C1.94 14.008 2.076 13.968 2.22 13.968C2.42 13.968 2.636 14.052 2.868 14.22C3.1 14.38 3.376 14.56 3.696 14.76C4.016 14.96 4.388 15.144 4.812 15.312C5.244 15.472 5.76 15.552 6.36 15.552C7.28 15.552 7.992 15.336 8.496 14.904C9 14.464 9.252 13.836 9.252 13.02C9.252 12.564 9.136 12.192 8.904 11.904C8.68 11.616 8.38 11.376 8.004 11.184C7.628 10.984 7.2 10.816 6.72 10.68C6.24 10.544 5.752 10.396 5.256 10.236C4.76 10.076 4.272 9.884 3.792 9.66C3.312 9.436 2.884 9.144 2.508 8.784C2.132 8.424 1.828 7.976 1.596 7.44C1.372 6.896 1.26 6.228 1.26 5.436C1.26 4.804 1.384 4.188 1.632 3.588C1.888 2.988 2.256 2.456 2.736 1.992C3.216 1.528 3.808 1.156 4.512 0.875999C5.216 0.596 6.024 0.456 6.936 0.456C7.96 0.456 8.904 0.616 9.768 0.935999C10.632 1.256 11.368 1.704 11.976 2.28L11.172 3.804ZM27.2239 3.3H21.9919V18H18.7639V3.3H13.5319V0.647999H27.2239V3.3ZM34.7385 8.904C35.3465 8.904 35.8745 8.828 36.3225 8.676C36.7785 8.524 37.1505 8.316 37.4385 8.052C37.7345 7.78 37.9545 7.46 38.0985 7.092C38.2425 6.724 38.3145 6.32 38.3145 5.88C38.3145 5 38.0225 4.324 37.4385 3.852C36.8625 3.38 35.9785 3.144 34.7865 3.144H32.7225V8.904H34.7385ZM43.0425 18H40.1265C39.5745 18 39.1745 17.784 38.9265 17.352L35.2785 11.796C35.1425 11.588 34.9905 11.44 34.8225 11.352C34.6625 11.264 34.4225 11.22 34.1025 11.22H32.7225V18H29.4945V0.647999H34.7865C35.9625 0.647999 36.9705 0.771999 37.8105 1.02C38.6585 1.26 39.3505 1.6 39.8865 2.04C40.4305 2.48 40.8305 3.008 41.0865 3.624C41.3425 4.232 41.4705 4.904 41.4705 5.64C41.4705 6.224 41.3825 6.776 41.2065 7.296C41.0385 7.816 40.7905 8.288 40.4625 8.712C40.1425 9.136 39.7425 9.508 39.2625 9.828C38.7905 10.148 38.2505 10.4 37.6425 10.584C37.8505 10.704 38.0425 10.848 38.2185 11.016C38.3945 11.176 38.5545 11.368 38.6985 11.592L43.0425 18ZM48.1564 3.216V8.028H54.2284V10.512H48.1564V15.42H55.8604V18H44.9164V0.647999H55.8604V3.216H48.1564ZM67.8891 11.448L65.7771 5.676C65.6731 5.42 65.5651 5.116 65.4531 4.764C65.3411 4.412 65.2291 4.032 65.1171 3.624C65.0131 4.032 64.9051 4.416 64.7931 4.776C64.6811 5.128 64.5731 5.436 64.4691 5.7L62.3691 11.448H67.8891ZM73.5891 18H71.0931C70.8131 18 70.5851 17.932 70.4091 17.796C70.2331 17.652 70.1011 17.476 70.0131 17.268L68.7171 13.728H61.5291L60.2331 17.268C60.1691 17.452 60.0451 17.62 59.8611 17.772C59.6771 17.924 59.4491 18 59.1771 18H56.6571L63.4851 0.647999H66.7731L73.5891 18ZM94.2011 0.647999V18H91.3571V6.792C91.3571 6.344 91.3811 5.86 91.4291 5.34L86.1851 15.192C85.9371 15.664 85.5571 15.9 85.0451 15.9H84.5891C84.0771 15.9 83.6971 15.664 83.4491 15.192L78.1451 5.304C78.1691 5.568 78.1891 5.828 78.2051 6.084C78.2211 6.34 78.2291 6.576 78.2291 6.792V18H75.3851V0.647999H77.8211C77.9651 0.647999 78.0891 0.651999 78.1931 0.659999C78.2971 0.667999 78.3891 0.687999 78.4691 0.719999C78.5571 0.751999 78.6331 0.803999 78.6971 0.875999C78.7691 0.947999 78.8371 1.044 78.9011 1.164L84.0971 10.8C84.2331 11.056 84.3571 11.32 84.4691 11.592C84.5891 11.864 84.7051 12.144 84.8171 12.432C84.9291 12.136 85.0451 11.852 85.1651 11.58C85.2851 11.3 85.4131 11.032 85.5491 10.776L90.6731 1.164C90.7371 1.044 90.8051 0.947999 90.8771 0.875999C90.9491 0.803999 91.0251 0.751999 91.1051 0.719999C91.1931 0.687999 91.2891 0.667999 91.3931 0.659999C91.4971 0.651999 91.6211 0.647999 91.7651 0.647999H94.2011ZM107.925 16.956V18H98.6486V1.02H99.8846V16.956H107.925ZM120.989 16.98L120.965 18H110.789V1.02H120.965V2.04H112.025V8.904H119.465V9.9H112.025V16.98H120.989ZM135.751 2.064H129.787V18H128.551V2.064H122.551V1.02H135.751V2.064Z" fill="#00925D"/>
</svg>
